<svg width="342" height="55" viewBox="0 0 342 55" fill="none" xmlns="http://www.w3.org/2000/svg">
<path d="M105.497 40.0909H106.818V47.8892C106.818 48.5852 106.69 49.1765 106.435 49.663C106.179 50.1495 105.819 50.5188 105.353 50.771C104.888 51.0231 104.339 51.1491 103.707 51.1491C103.111 51.1491 102.58 51.0408 102.115 50.8242C101.65 50.604 101.284 50.2915 101.017 49.8867C100.751 49.4819 100.618 49.0007 100.618 48.4432H101.918C101.918 48.7521 101.994 49.022 102.147 49.2528C102.303 49.4801 102.516 49.6577 102.786 49.7855C103.056 49.9134 103.363 49.9773 103.707 49.9773C104.087 49.9773 104.411 49.8974 104.677 49.7376C104.943 49.5778 105.146 49.3434 105.284 49.0344C105.426 48.7219 105.497 48.3402 105.497 47.8892V40.0909ZM112.619 51.1705C111.88 51.1705 111.232 50.9947 110.675 50.6431C110.121 50.2915 109.688 49.7997 109.375 49.1676C109.066 48.5355 108.912 47.7969 108.912 46.9517C108.912 46.0994 109.066 45.3555 109.375 44.7198C109.688 44.0842 110.121 43.5906 110.675 43.239C111.232 42.8874 111.88 42.7116 112.619 42.7116C113.358 42.7116 114.004 42.8874 114.558 43.239C115.115 43.5906 115.549 44.0842 115.858 44.7198C116.17 45.3555 116.326 46.0994 116.326 46.9517C116.326 47.7969 116.17 48.5355 115.858 49.1676C115.549 49.7997 115.115 50.2915 114.558 50.6431C114.004 50.9947 113.358 51.1705 112.619 51.1705ZM112.619 50.0412C113.18 50.0412 113.642 49.8974 114.004 49.6097C114.366 49.3221 114.634 48.9439 114.808 48.4751C114.982 48.0064 115.069 47.4986 115.069 46.9517C115.069 46.4048 114.982 45.8952 114.808 45.4229C114.634 44.9506 114.366 44.5689 114.004 44.2777C113.642 43.9865 113.18 43.8409 112.619 43.8409C112.058 43.8409 111.596 43.9865 111.234 44.2777C110.872 44.5689 110.604 44.9506 110.43 45.4229C110.256 45.8952 110.169 46.4048 110.169 46.9517C110.169 47.4986 110.256 48.0064 110.43 48.4751C110.604 48.9439 110.872 49.3221 111.234 49.6097C111.596 49.8974 112.058 50.0412 112.619 50.0412ZM118.245 51V42.8182H119.502V51H118.245ZM118.884 41.4545C118.639 41.4545 118.428 41.3711 118.251 41.2042C118.077 41.0373 117.99 40.8366 117.99 40.6023C117.99 40.3679 118.077 40.1673 118.251 40.0004C118.428 39.8335 118.639 39.75 118.884 39.75C119.13 39.75 119.339 39.8335 119.513 40.0004C119.691 40.1673 119.779 40.3679 119.779 40.6023C119.779 40.8366 119.691 41.0373 119.513 41.2042C119.339 41.3711 119.13 41.4545 118.884 41.4545ZM123.062 46.0781V51H121.805V42.8182H123.019V44.0966H123.126C123.318 43.6811 123.609 43.3473 123.999 43.0952C124.39 42.8395 124.894 42.7116 125.512 42.7116C126.066 42.7116 126.551 42.8253 126.966 43.0526C127.382 43.2763 127.705 43.6172 127.936 44.0753C128.167 44.5298 128.282 45.1051 128.282 45.8011V51H127.025V45.8864C127.025 45.2436 126.858 44.7429 126.524 44.3842C126.191 44.022 125.732 43.8409 125.15 43.8409C124.749 43.8409 124.39 43.9279 124.074 44.1019C123.762 44.2759 123.515 44.5298 123.334 44.8636C123.153 45.1974 123.062 45.6023 123.062 46.0781ZM139.954 47.6548V42.8182H141.211V51H139.954V49.6151H139.869C139.677 50.0305 139.379 50.3839 138.974 50.6751C138.569 50.9627 138.058 51.1065 137.44 51.1065C136.929 51.1065 136.474 50.9947 136.076 50.771C135.679 50.5437 135.366 50.2028 135.139 49.7482C134.912 49.2901 134.798 48.7131 134.798 48.017V42.8182H136.055V47.9318C136.055 48.5284 136.222 49.0043 136.556 49.3594C136.893 49.7145 137.323 49.892 137.845 49.892C138.157 49.892 138.475 49.8121 138.798 49.6523C139.125 49.4925 139.399 49.2475 139.619 48.9173C139.842 48.587 139.954 48.1662 139.954 47.6548ZM149.309 44.6506L148.18 44.9702C148.109 44.782 148.004 44.5991 147.866 44.4215C147.731 44.2404 147.546 44.0913 147.312 43.9741C147.077 43.8569 146.777 43.7983 146.412 43.7983C145.911 43.7983 145.494 43.9137 145.16 44.1445C144.83 44.3718 144.664 44.6612 144.664 45.0128C144.664 45.3253 144.778 45.5721 145.005 45.7532C145.233 45.9343 145.588 46.0852 146.071 46.206L147.285 46.5043C148.017 46.6818 148.562 46.9535 148.92 47.3192C149.279 47.6815 149.458 48.1484 149.458 48.7202C149.458 49.1889 149.324 49.608 149.054 49.9773C148.787 50.3466 148.414 50.6378 147.935 50.8509C147.456 51.0639 146.898 51.1705 146.262 51.1705C145.428 51.1705 144.737 50.9893 144.19 50.6271C143.643 50.2649 143.297 49.7358 143.152 49.0398L144.345 48.7415C144.458 49.1818 144.673 49.5121 144.989 49.7322C145.309 49.9524 145.726 50.0625 146.241 50.0625C146.827 50.0625 147.292 49.9382 147.637 49.6896C147.985 49.4375 148.159 49.1357 148.159 48.7841C148.159 48.5 148.059 48.2621 147.86 48.0703C147.662 47.875 147.356 47.7294 146.944 47.6335L145.581 47.3139C144.831 47.1364 144.281 46.8612 143.929 46.4883C143.581 46.1119 143.407 45.6413 143.407 45.0767C143.407 44.6151 143.537 44.2067 143.796 43.8516C144.059 43.4964 144.416 43.2177 144.867 43.0153C145.321 42.8129 145.836 42.7116 146.412 42.7116C147.221 42.7116 147.857 42.8892 148.319 43.2443C148.784 43.5994 149.114 44.0682 149.309 44.6506ZM157.977 51.1918C157.459 51.1918 156.988 51.0941 156.566 50.8988C156.143 50.6999 155.807 50.4141 155.559 50.0412C155.31 49.6648 155.186 49.2102 155.186 48.6776C155.186 48.2088 155.278 47.8288 155.463 47.5376C155.648 47.2429 155.894 47.0121 156.203 46.8452C156.512 46.6783 156.853 46.554 157.226 46.4723C157.603 46.3871 157.981 46.3196 158.361 46.2699C158.858 46.206 159.261 46.158 159.57 46.1261C159.882 46.0906 160.11 46.032 160.252 45.9503C160.397 45.8686 160.47 45.7266 160.47 45.5241V45.4815C160.47 44.956 160.326 44.5476 160.039 44.2564C159.755 43.9652 159.323 43.8196 158.744 43.8196C158.144 43.8196 157.674 43.951 157.333 44.2138C156.992 44.4766 156.752 44.7571 156.614 45.0554L155.42 44.6293C155.633 44.1321 155.918 43.745 156.273 43.468C156.631 43.1875 157.022 42.9922 157.445 42.8821C157.871 42.7685 158.29 42.7116 158.702 42.7116C158.964 42.7116 159.266 42.7436 159.607 42.8075C159.952 42.8679 160.284 42.994 160.603 43.1857C160.926 43.3775 161.195 43.6669 161.408 44.054C161.621 44.4411 161.727 44.9595 161.727 45.6094V51H160.47V49.892H160.406C160.321 50.0696 160.179 50.2596 159.98 50.462C159.781 50.6644 159.517 50.8366 159.186 50.9787C158.856 51.1207 158.453 51.1918 157.977 51.1918ZM158.169 50.0625C158.666 50.0625 159.085 49.9648 159.426 49.7695C159.771 49.5742 160.03 49.3221 160.204 49.0131C160.381 48.7042 160.47 48.3793 160.47 48.0384V46.8878C160.417 46.9517 160.3 47.0103 160.119 47.0636C159.941 47.1133 159.735 47.1577 159.501 47.1967C159.27 47.2322 159.044 47.2642 158.824 47.2926C158.608 47.3175 158.432 47.3388 158.297 47.3565C157.97 47.3991 157.665 47.4684 157.381 47.5643C157.1 47.6566 156.873 47.7969 156.699 47.9851C156.528 48.1697 156.443 48.4219 156.443 48.7415C156.443 49.1783 156.605 49.5085 156.928 49.7322C157.255 49.9524 157.668 50.0625 158.169 50.0625ZM169.817 44.6506L168.688 44.9702C168.617 44.782 168.512 44.5991 168.374 44.4215C168.239 44.2404 168.054 44.0913 167.82 43.9741C167.585 43.8569 167.285 43.7983 166.919 43.7983C166.419 43.7983 166.001 43.9137 165.668 44.1445C165.337 44.3718 165.172 44.6612 165.172 45.0128C165.172 45.3253 165.286 45.5721 165.513 45.7532C165.74 45.9343 166.096 46.0852 166.578 46.206L167.793 46.5043C168.525 46.6818 169.07 46.9535 169.428 47.3192C169.787 47.6815 169.966 48.1484 169.966 48.7202C169.966 49.1889 169.831 49.608 169.561 49.9773C169.295 50.3466 168.922 50.6378 168.443 50.8509C167.963 51.0639 167.406 51.1705 166.77 51.1705C165.936 51.1705 165.245 50.9893 164.698 50.6271C164.151 50.2649 163.805 49.7358 163.659 49.0398L164.853 48.7415C164.966 49.1818 165.181 49.5121 165.497 49.7322C165.817 49.9524 166.234 50.0625 166.749 50.0625C167.335 50.0625 167.8 49.9382 168.145 49.6896C168.493 49.4375 168.667 49.1357 168.667 48.7841C168.667 48.5 168.567 48.2621 168.368 48.0703C168.169 47.875 167.864 47.7294 167.452 47.6335L166.088 47.3139C165.339 47.1364 164.789 46.8612 164.437 46.4883C164.089 46.1119 163.915 45.6413 163.915 45.0767C163.915 44.6151 164.045 44.2067 164.304 43.8516C164.567 43.4964 164.924 43.2177 165.375 43.0153C165.829 42.8129 166.344 42.7116 166.919 42.7116C167.729 42.7116 168.365 42.8892 168.826 43.2443C169.292 43.5994 169.622 44.0682 169.817 44.6506ZM178.485 51.1918C177.967 51.1918 177.496 51.0941 177.073 50.8988C176.651 50.6999 176.315 50.4141 176.067 50.0412C175.818 49.6648 175.694 49.2102 175.694 48.6776C175.694 48.2088 175.786 47.8288 175.971 47.5376C176.155 47.2429 176.402 47.0121 176.711 46.8452C177.02 46.6783 177.361 46.554 177.734 46.4723C178.11 46.3871 178.489 46.3196 178.869 46.2699C179.366 46.206 179.769 46.158 180.078 46.1261C180.39 46.0906 180.617 46.032 180.759 45.9503C180.905 45.8686 180.978 45.7266 180.978 45.5241V45.4815C180.978 44.956 180.834 44.5476 180.546 44.2564C180.262 43.9652 179.831 43.8196 179.252 43.8196C178.652 43.8196 178.181 43.951 177.84 44.2138C177.5 44.4766 177.26 44.7571 177.121 45.0554L175.928 44.6293C176.141 44.1321 176.425 43.745 176.78 43.468C177.139 43.1875 177.53 42.9922 177.952 42.8821C178.378 42.7685 178.797 42.7116 179.209 42.7116C179.472 42.7116 179.774 42.7436 180.115 42.8075C180.459 42.8679 180.791 42.994 181.111 43.1857C181.434 43.3775 181.702 43.6669 181.915 44.054C182.128 44.4411 182.235 44.9595 182.235 45.6094V51H180.978V49.892H180.914C180.829 50.0696 180.687 50.2596 180.488 50.462C180.289 50.6644 180.024 50.8366 179.694 50.9787C179.364 51.1207 178.961 51.1918 178.485 51.1918ZM178.677 50.0625C179.174 50.0625 179.593 49.9648 179.934 49.7695C180.278 49.5742 180.538 49.3221 180.712 49.0131C180.889 48.7042 180.978 48.3793 180.978 48.0384V46.8878C180.925 46.9517 180.807 47.0103 180.626 47.0636C180.449 47.1133 180.243 47.1577 180.008 47.1967C179.778 47.2322 179.552 47.2642 179.332 47.2926C179.115 47.3175 178.94 47.3388 178.805 47.3565C178.478 47.3991 178.172 47.4684 177.888 47.5643C177.608 47.6566 177.381 47.7969 177.207 47.9851C177.036 48.1697 176.951 48.4219 176.951 48.7415C176.951 49.1783 177.112 49.5085 177.436 49.7322C177.762 49.9524 178.176 50.0625 178.677 50.0625ZM188.919 51V40.0909H192.605C193.461 40.0909 194.16 40.2454 194.703 40.5543C195.25 40.8597 195.655 41.2734 195.918 41.7955C196.181 42.3175 196.312 42.8999 196.312 43.5426C196.312 44.1854 196.181 44.7695 195.918 45.2951C195.659 45.8207 195.257 46.2397 194.714 46.5522C194.171 46.8612 193.475 47.0156 192.626 47.0156H189.984V45.8438H192.583C193.169 45.8438 193.64 45.7425 193.995 45.5401C194.35 45.3377 194.608 45.0643 194.767 44.7198C194.931 44.3718 195.012 43.9794 195.012 43.5426C195.012 43.1058 194.931 42.7152 194.767 42.3707C194.608 42.0263 194.348 41.7564 193.99 41.5611C193.631 41.3622 193.155 41.2628 192.562 41.2628H190.24V51H188.919ZM200.677 51.1918C200.159 51.1918 199.688 51.0941 199.266 50.8988C198.843 50.6999 198.508 50.4141 198.259 50.0412C198.01 49.6648 197.886 49.2102 197.886 48.6776C197.886 48.2088 197.979 47.8288 198.163 47.5376C198.348 47.2429 198.595 47.0121 198.904 46.8452C199.213 46.6783 199.553 46.554 199.926 46.4723C200.303 46.3871 200.681 46.3196 201.061 46.2699C201.558 46.206 201.961 46.158 202.27 46.1261C202.583 46.0906 202.81 46.032 202.952 45.9503C203.097 45.8686 203.17 45.7266 203.17 45.5241V45.4815C203.17 44.956 203.026 44.5476 202.739 44.2564C202.455 43.9652 202.023 43.8196 201.444 43.8196C200.844 43.8196 200.374 43.951 200.033 44.2138C199.692 44.4766 199.452 44.7571 199.314 45.0554L198.121 44.6293C198.334 44.1321 198.618 43.745 198.973 43.468C199.331 43.1875 199.722 42.9922 200.145 42.8821C200.571 42.7685 200.99 42.7116 201.402 42.7116C201.665 42.7116 201.966 42.7436 202.307 42.8075C202.652 42.8679 202.984 42.994 203.303 43.1857C203.627 43.3775 203.895 43.6669 204.108 44.054C204.321 44.4411 204.427 44.9595 204.427 45.6094V51H203.17V49.892H203.106C203.021 50.0696 202.879 50.2596 202.68 50.462C202.481 50.6644 202.217 50.8366 201.887 50.9787C201.556 51.1207 201.153 51.1918 200.677 51.1918ZM200.869 50.0625C201.366 50.0625 201.785 49.9648 202.126 49.7695C202.471 49.5742 202.73 49.3221 202.904 49.0131C203.081 48.7042 203.17 48.3793 203.17 48.0384V46.8878C203.117 46.9517 203 47.0103 202.819 47.0636C202.641 47.1133 202.435 47.1577 202.201 47.1967C201.97 47.2322 201.744 47.2642 201.524 47.2926C201.308 47.3175 201.132 47.3388 200.997 47.3565C200.67 47.3991 200.365 47.4684 200.081 47.5643C199.8 47.6566 199.573 47.7969 199.399 47.9851C199.229 48.1697 199.143 48.4219 199.143 48.7415C199.143 49.1783 199.305 49.5085 199.628 49.7322C199.955 49.9524 200.368 50.0625 200.869 50.0625ZM206.722 51V42.8182H207.936V44.054H208.022C208.171 43.6491 208.441 43.3207 208.831 43.0685C209.222 42.8164 209.662 42.6903 210.152 42.6903C210.245 42.6903 210.36 42.6921 210.498 42.6957C210.637 42.6992 210.742 42.7045 210.813 42.7116V43.9901C210.77 43.9794 210.672 43.9634 210.52 43.9421C210.371 43.9173 210.213 43.9048 210.046 43.9048C209.648 43.9048 209.293 43.9883 208.98 44.1552C208.671 44.3185 208.426 44.5458 208.245 44.837C208.068 45.1246 207.979 45.4531 207.979 45.8224V51H206.722ZM216.374 42.8182V43.8835H212.134V42.8182H216.374ZM213.37 40.858H214.627V48.6562C214.627 49.0114 214.678 49.2777 214.781 49.4553C214.888 49.6293 215.023 49.7464 215.186 49.8068C215.353 49.8636 215.529 49.892 215.713 49.892C215.852 49.892 215.965 49.8849 216.054 49.8707C216.143 49.853 216.214 49.8388 216.267 49.8281L216.523 50.9574C216.438 50.9893 216.319 51.0213 216.166 51.0533C216.013 51.0888 215.82 51.1065 215.585 51.1065C215.23 51.1065 214.882 51.0302 214.541 50.8775C214.204 50.7248 213.924 50.4922 213.7 50.1797C213.48 49.8672 213.37 49.473 213.37 48.9972V40.858ZM219.522 46.0781V51H218.265V42.8182H219.479V44.0966H219.586C219.778 43.6811 220.069 43.3473 220.459 43.0952C220.85 42.8395 221.354 42.7116 221.972 42.7116C222.526 42.7116 223.011 42.8253 223.426 43.0526C223.842 43.2763 224.165 43.6172 224.396 44.0753C224.627 44.5298 224.742 45.1051 224.742 45.8011V51H223.485V45.8864C223.485 45.2436 223.318 44.7429 222.984 44.3842C222.65 44.022 222.192 43.8409 221.61 43.8409C221.209 43.8409 220.85 43.9279 220.534 44.1019C220.222 44.2759 219.975 44.5298 219.794 44.8636C219.612 45.1974 219.522 45.6023 219.522 46.0781ZM230.47 51.1705C229.681 51.1705 229.001 50.9964 228.43 50.6484C227.861 50.2969 227.423 49.8068 227.114 49.1783C226.808 48.5462 226.656 47.8111 226.656 46.973C226.656 46.1349 226.808 45.3963 227.114 44.7571C227.423 44.1143 227.852 43.6136 228.403 43.255C228.957 42.8928 229.603 42.7116 230.342 42.7116C230.768 42.7116 231.189 42.7827 231.604 42.9247C232.02 43.0668 232.398 43.2976 232.739 43.6172C233.08 43.9332 233.351 44.3523 233.554 44.8743C233.756 45.3963 233.857 46.0391 233.857 46.8026V47.3352H227.551V46.2486H232.579C232.579 45.7869 232.487 45.375 232.302 45.0128C232.121 44.6506 231.862 44.3647 231.524 44.1552C231.191 43.9457 230.796 43.8409 230.342 43.8409C229.841 43.8409 229.408 43.9652 229.042 44.2138C228.68 44.4588 228.401 44.7784 228.206 45.1726C228.01 45.5668 227.913 45.9893 227.913 46.4403V47.1648C227.913 47.7827 228.019 48.3065 228.232 48.7362C228.449 49.1623 228.749 49.4872 229.133 49.7109C229.516 49.9311 229.962 50.0412 230.47 50.0412C230.8 50.0412 231.098 49.995 231.365 49.9027C231.634 49.8068 231.867 49.6648 232.062 49.4766C232.258 49.2848 232.409 49.0469 232.515 48.7628L233.73 49.1037C233.602 49.5156 233.387 49.8778 233.085 50.1903C232.783 50.4993 232.41 50.7408 231.966 50.9148C231.523 51.0852 231.024 51.1705 230.47 51.1705ZM235.77 51V42.8182H236.984V44.054H237.069C237.219 43.6491 237.488 43.3207 237.879 43.0685C238.27 42.8164 238.71 42.6903 239.2 42.6903C239.292 42.6903 239.408 42.6921 239.546 42.6957C239.685 42.6992 239.79 42.7045 239.861 42.7116V43.9901C239.818 43.9794 239.72 43.9634 239.568 43.9421C239.419 43.9173 239.26 43.9048 239.094 43.9048C238.696 43.9048 238.341 43.9883 238.028 44.1552C237.719 44.3185 237.474 44.5458 237.293 44.837C237.116 45.1246 237.027 45.4531 237.027 45.8224V51H235.77Z" fill="#797979"/>
<path d="M192 9H342" stroke="#D0D0D0"/>
<path d="M0 9H150" stroke="#D0D0D0"/>
<path d="M167.474 14.1705C166.736 14.1705 166.088 13.9947 165.53 13.6431C164.976 13.2915 164.543 12.7997 164.23 12.1676C163.922 11.5355 163.767 10.7969 163.767 9.9517C163.767 9.09943 163.922 8.35547 164.23 7.71982C164.543 7.08416 164.976 6.59055 165.53 6.23899C166.088 5.88743 166.736 5.71165 167.474 5.71165C168.213 5.71165 168.859 5.88743 169.413 6.23899C169.971 6.59055 170.404 7.08416 170.713 7.71982C171.026 8.35547 171.182 9.09943 171.182 9.9517C171.182 10.7969 171.026 11.5355 170.713 12.1676C170.404 12.7997 169.971 13.2915 169.413 13.6431C168.859 13.9947 168.213 14.1705 167.474 14.1705ZM167.474 13.0412C168.036 13.0412 168.497 12.8974 168.859 12.6097C169.222 12.3221 169.49 11.9439 169.664 11.4751C169.838 11.0064 169.925 10.4986 169.925 9.9517C169.925 9.40483 169.838 8.89524 169.664 8.42294C169.49 7.95064 169.222 7.56889 168.859 7.2777C168.497 6.98651 168.036 6.84091 167.474 6.84091C166.913 6.84091 166.452 6.98651 166.089 7.2777C165.727 7.56889 165.459 7.95064 165.285 8.42294C165.111 8.89524 165.024 9.40483 165.024 9.9517C165.024 10.4986 165.111 11.0064 165.285 11.4751C165.459 11.9439 165.727 12.3221 166.089 12.6097C166.452 12.8974 166.913 13.0412 167.474 13.0412ZM173.101 14V5.81818H174.315V7.05398H174.4C174.55 6.64915 174.82 6.32067 175.21 6.06854C175.601 5.81641 176.041 5.69034 176.531 5.69034C176.623 5.69034 176.739 5.69212 176.877 5.69567C177.016 5.69922 177.121 5.70455 177.192 5.71165V6.99006C177.149 6.9794 177.051 6.96342 176.899 6.94212C176.75 6.91726 176.592 6.90483 176.425 6.90483C176.027 6.90483 175.672 6.98828 175.359 7.15518C175.05 7.31854 174.805 7.54581 174.624 7.837C174.447 8.12464 174.358 8.45312 174.358 8.82244V14H173.101Z" fill="black"/>
</svg>
